<mxfile host="65bd71144e" scale="1" border="5">
    <diagram id="Ga5Z-11FncuY0EhAjTDc" name="Page-1">
        <mxGraphModel dx="287" dy="606" grid="1" gridSize="10" guides="1" tooltips="1" connect="1" arrows="1" fold="1" page="1" pageScale="1" pageWidth="850" pageHeight="1100" background="#66B2FF" math="0" shadow="0">
            <root>
                <mxCell id="0"/>
                <mxCell id="1" parent="0"/>
                <mxCell id="6" value="" style="shape=image;verticalLabelPosition=bottom;verticalAlign=top;imageAspect=0;aspect=fixed;image=data:image/png,iVBORw0KGgoAAAANSUhEUgAAAJoAAAFHCAMAAABu9qVgAAABzlBMVEX/whP////TWSgEBgfv7u7u7e0AAAD08/P6+voAAAb39/f/57n5+fny8fH/wAD/xRLSVSn/yBMAAAnYWynQUCnTViLORgDOSAr/vQD//+/PURv/+Ov+8Nr53rv/8df//fn04N3uv5ngj1jRaCj65tL31pLSXh/7vSz007f/zVb/yUPz28jU1NTTcFT35t7ytxUAABPyrRnoxr771H7i4uKvr6/ExMSVlZUuLi7ZcR4aFQhAQUEcDw6TPh3jo31gYGCJh4ZoRg2AgICXbhXkihv84LPap4zflWjYd1q8vLyioaAUFRU7IhfggiTwpxx0dHTmrhjtnRvDWyb/2owAGRgyMzP5yG/HjBsiIyMAABn5v0nfpBesgw5aVlLowK3BlB7ah3NZQhhyQyOLZRVwVxyEPSFLR0QnHBajfhysdRjOmhxJNhY4JA2FYRqVahX83KRBIhknHQpXMxJ0RxTYkh4nDRa6gh+JeGOxoIHBtJtBOi9sXkvUupEfJS1xQxUiFQCVfFqXkYGwSyNZKRdnNBouKxGcUib0xo3aekCzXycyDwZ6bWHto2W4rZpuXEQUHyWOSCNyJQ0ZHApvOiOTWBy5ZCOMMRLafEzSWAA9MxCJyRn0AAAeCElEQVR4nO2d+38Ux5HAd1a789KsZh+SkQWCCwrLQfZu0bG7kkBGAkQ4SRYC2QidhcJhB4EBW1h2iE18+AI24CS+EMc5x//tTb+f89wR9uc+6fwQxtL0fFXV3VVdXd1dMGDxyqWglG30hB5c9FABD6UKenDRj9CDjR487qWShR4s+FCKrbwUUXkhN7QS+MXyTwet4tnBO1a5XO50OgEJruBHRwseF5dW5x492jDNAdM0lx9tnVvqdSBa+UdFKy9tmdpyeqqMxbbXaOCpzL8dPLitc6cDiAFtCX4w1y3bloRm6ND4yi0JzYbFs2Dx+AcX/Qg9WOjBBf/d6MxvhHIRuuW5XlCbR16KrNxlldMveVahDAvpWPCB/rGwkD8WFvDHduZiuIjoTnU9i6u8wlfu8pXb6MHjv2QZhVLccCTowTM6q0nAMN10L1ArRUs4CpEBMh2aXZ5PyoXhtlpGKePYnQatYk+pEnOEooE7h6vbQ7SyV9qWwADMidvvfnfnzo3rNz65c+fx7boCGHSIVka0pN2gZHRFMMep12++v1mDxQcF/GP07vV7dRluEaGl7QaawcPW9W9rVSBz6vc/uDYZMBWkEgBefijSOeaUkXRk4gcPQXlhQ27ZKp8WwJyzdwuBqGQuQle4fKfOS85cdUOsQdSQG48GyDrLJg92c1MVl0z3IQ9nbgTdW4fWn6EqldzOACNz6veu8WBDQRktjA4NSXS1ybOcVs3tirEHaFZngyObvVHwGdbo0WMnBw8e2H/gwnGZza9d+4i9Z87tBVqJtTPHfNyuMa71CwcO4S8atsIW/Akf1BnbVFY0WAgatZcAzdhiZHWqy6Gh9XGKBcvBUbXN1e4wpWI2ofISfKDdQBhQxHGtwv+QjGtTjOyjy1hkQ0ffErlAOaaILWDbPMHYum6u5t3q0PHM2W0jkQ0dH7cNtejQCrXLHxE20yxX8jRU9jYjG/WRKnd0YCFoBf8ylZu5aueIZi9RsttIZkPrqiph2a9pa0intL2ZPSs/tDIZax0Hkg0NjevBDGNdKzTAdo2inUqFBuwQM+8l8D+CFnTZc1Ron9RgK9uv5zq0XyFrT5Lxr3aejCFkBAFoZRGN6wYAIkDD1taDBVtb9ACsbYWSfQDJjumoxneOHT+uWINCodgmbP5Nh/SEjk0rp1/yNBCuVyDc6rgGJDlP1DkLPjO0LmPZ4yePAkul7ZsTw4TN3yQGNegJicc1ojytNaiQgcO5VtOQja+rppPrmivVJsX8kImtkouhIt3TedNXtTl4fDScC6AtVKsz9OE2YZuy80DzpjGaeQ1oRugB4zFgAc2V4eLwAjYf/l3cE8zlXKTWI0J7EJCNHuTb2LEITRK0yWqxOHyJdIV7RGxdKxWarhu4xipBu14rDJ3kyA4UYsGC0g7QikX8QAc386qdsBsI3rnw4JVxJ3A+Cqoe4tQ5GC8yKDaAVl3BYmvT1lY2yDygEjUzQdaAG3KZNbAXidDeE4U2mAgsEBSUWhWPvLXzBG1RVZ5iDaI9D2MOo9UvB5Uzw6nzy/RoTYg2gdD8STy2QX+3PxtqEH3eE4R2KClZMOYCNNoTavcxmtk3Wovo806AdoCihVpxFW0GarQ4gQaQ2nWi0VYKNG10mI63m37hKFNnYjJgDpDY2uhxkw4f/bY17EM6twV96v1FPdoCQquuYLGRxrYaoJVC0QhR+LhmYFMAfA7mpIX5i1FSK46g59p7GO200Z95d7ET6Vz3C0M/J2g7yYXG0HBHCKZXCG3aKvVjqCotE1Xk3A3QjmTQJ1Uo0ah/jXTRVqUvNGJATfAnk26QRp9MakXsHLVpF7X6QXO7GO0E6F9YbPtTgHFSCywCQiP9oJsKTe4GHp4VOG/CWoeODx48uJPIqtNCxrWgsV1Bo+4uRptyk3QDPA/AhT0R39vZRd8ZGhqNc9DC0bCN988SNIPMA+TPcg/hAVOC9jQdD482USRoMwpaP4EF7Kw570YH+aLQirQgR1xA68OGYr/D+TIzml9lbHuC9nFmtPZeoa3229b8yWEJjcwPEqJp4msIDYfVnC8yo12RpUZ88MD1SLFuUIEFe+fwn13ieGRGW1DQcDjLXPTIugH8rMU/kPlCJd5QnWhnRGNjB7FUbTIXFQ1V2nUD0YZmKk2GNgHFSH3JPs17y2ROUZbC9wLkelCnaLnTl1NUMjaYK5kJjWtq1QXw55HpHu9KZkKzycD2RUa0GYaGfMka6aBzdho09Ds29wKJ4jpOJjJhwK2irkSa2rwtrizjocvlRlXDLkWsG9BgzN0sjU0Y1ZqgBv8GQev1u27Q4eIKGdCKnNCgT1QjZsqs5DZ7/yEDmn+Js1KoqbUHyKxFbVdp0Uggt76ZXqM1blArjiB9kgF3qW80m0YWzqZGAxFJSZ8sCt5JiBbq5QYDyjIfKkpXeKHBwIK/SYR2Cg0U8d0AuuMkZO9avHdOo1jO+ZStjU3zoJWCQvvYofqkX7L4z1r8fIGtG+jXQ6lGT6Qk4/sA6gQsumZ2KgkDpgRNsQbgbbJIa15LIzbBh8RTlhoV2lwuwXmDhkzTOG1+u1hUhHaXrlL1rFzQbDN9a/NHBbLqDHyTrNea20YpFzS6uO3U2wk7qT9ZFNFAlISGmIEXmRItbPmMiS3hxErsAVidtYdUnXMp0gKQP+4awB83sHeOHlzgp7NF5CQq9QsLEhnwIf3LdF3P7FiscjoPsPHMBP0IPSixXH7dACrZnaZsm3Fsfm2yWRXI4PKZ356l6jzn0YyFaGuQIGPB61G02Wib4PuTM6LIinDR0R/dpWTTVo5pAWWbJqA4X0Sw+f6lleGqjqzNyMyWmw+abXlBtyhTsYWz+bXCpZmqBFYcBtOo2mWqzWBmbKdPSOTbGmiBUGit7tLqIyEBFy1zK/KqTa4UZa6ADLSz2icsVcxchQmXGdtaYGArnVZvaX71Kk2bHuCKMyv1Bd8vXFppypoEygSTKL92nUspQoMtQRP0gx4i1g0sqze/vaEh4tjq77MUsQLgKmq4gDIna4Eyz3KJWMtYRMnHNdrky3bragQUYXN2aZaYvzCs5SoON6/4gTzPc3l/ponzTLMkickZpKFw9es1Aje5UlXgqgisdneWT/oLxtrMCYlWQjKQXvebhwWUxubX/EszQVMDJegJ1QC0uTJZC9A3+WzEAXMrGPGzSq3USZFB7ZhvPpzEOXbBwDF5ZWVmpjnRnFhZuTJZCMAuv78rJJgGVqDba7kZ0ezVcDJH7RmOM3v2LknLBepDi1CgbF4/W1cyrsHr06dXp7qtMkxZTdQNcKze0pDR8WNj7reffvaL30pw9fr9OzfaNb9GS2Hzxvn7dV0qOFfdVsuwDZuuVIQXPKPyFk21Fuf2o9/Nf/rZhUFcPv8vNQXcub378XvnYXl8Qp+hrgAuz00tlrxSwsCCSxMiofb+/Lut33/z+ecUCpfx36kNMjJvPpTONFc7YCsCQYuwoTRPzfniv78ZHx8fDCmfJt4HEcu3vLRI7GNCtAdHa8fXj8jyYoL7bT0nOCi77XNTYHeT7VmVUDQ6CXgwCnOnj75zcmdHT/f7DTNedY45u+w4ZrSSSTe7ugW6rmtIaLgFktVP5lwAvmNHdmT57Tw/8/0b96O/GSA9fVZce/Lk3adPwfdjWiHZfrXkit0Ao9L0PiG+AfCOrr9FxLfzs8NrzbGxkUbxyZdvm3rZBaIyH9yqNhrFYiMoxbXqs7/+5at6PCDapVOpEEeWrBuwpA4x9AJyDY+dBGg7Zw6PBVQj2FIG37x1D3ZPU9jcYi7ff6MJuFgBgM2RZy9vfRvl0yC4rqd4HkZXRoNL0sfX37pwcPDC8zMvXts3NiLZ8eCTX7/x+N69Bw/+8MW3337xhwe7L9/4ekTi4n57ZOTvf/vjo+kTEXSBf2KFog2cCNDazcCxAfH09beOPD/8Yt/YmPZrSGUBy0hxba040oAKDClj+8Ze/On5zsHB8fHPP/tjONvVSjQaiI7BUP/QkC9NLLOUkX2vvbj4nPWnPz1FxkbL1rUkNLunoOGUuEmts5gcK2ifh5/L3fzCZ5/O6Rx8ML13Q9FAWwOrEQTNn4j/fkgJuk3x8JnQ0Xvws2/mt66eEAFNk2wpqJBxTUCrQbQa9rIziW1kbN/E989DBm3BvHz+zbn/ufpnOokwSyXJvHdENJpkkEWjAVYzERYpB39x5jvyfbAnQTBUDM25hqVG0GqpNDoCuuKZFFiDF85cDN55xtBKUWgwSjxB5k1XEoutOlZ8ceY5/uTOzvonQ+8cC7PE+Jcufg8HzMZLimbJaJVQtEIhKVp15k+Y48LOyWOXFprNGrLE60d0fDvPv5/Yh81L4xaJGnNoeMZaIcMMiKOhpk8nwjNJ2QqBxX1n5+DB9aNX4DwLJ0mCxPqj7wh8O88Pr41w9qVxi0TgNjzaDfDcgCkUoMG1Eop2Kdmoi4abobcM4+I+FJtpclEImPp/PNDvBWD3xvaJZo9Ds8i0gcyoDEFqAG2Ypao1tSgKGjS7AO0MNmwTSrAwkJ9nj78mm+Ni4y8E7bRsDTxXQANyGqb11VaSaBR36Wg0mKQ3/pryMocmW4NIND/R0IZz1EAS3sURDKtDs7VoX9IVD0NGs8mOQbAwi9BYfoefSKN4+9egYRzGaCuaSGEsmqJQ+yqPBncK0A09iYwVSkoQ0TRSGzpuGP+8T0UjUVVzVVEoQwO5ExJaYTK+jxIhx0gNommk9pUGDQbpS64hoIFVpuoVVjEwqjFCIxJKIrUotHkDxGwrfCxXQCuMiGjxDiWVcTapjbzN0JRYLkWDq9kjrPHA0o5Do9uSeLQFPdqv1LY2QgP4S2pwfi4SLc5YDVMRZ0Qzk6LVmjJanPvBvt0nWktdN6BoDwoatEIhEqy6UOsPbUxGA22NrOzRjUlPCZrQiKONVZUNNHFo68yOhUiNruwRQzUlSG2GbWDAGo1yP6hHjNFepEVrfM3QSvKQ63F7GnGKtDQqRRir4UsiGnbZU6A9i0BzKdrtNlaf6DdEabTKfzsT2ssINGuKR4MeeFOUWrixEhB4tCsatLe0aG8Q/3u5E4EGFArteVVaKQudWXE+SjzaEdpLBDRiDAYi0GCyK0QbltDChjaxKyeQ2sUItOmKvG7gclGsELRQYzV8KSValNSmXbrtgGZiUTQotSuCm4vFFuJ+NAWAOLSdaKltaxISaRQLJNLJbi7WqFZsEkAc2qBWars8mmxD6XJLfRKgQV9SqrYt14j0qX57Qqfp7GgtUWo6NK37IQ9ePNpkYjS6rXUrCs38xEdpXkrNWo3KfwDYqEY2nYWgvYhAW9UkJFI0J0CDvVGjD43QZCc7QDtEqfVoqslrzA5waOK6gVfpqGhKzRpjNSw39QRSi0Kbt1k2M0YrMbTrGE3tYBr3o6l8uz+pTXm6BW6CBrffa9GEPT5In4oFB1IjaJpNFGA7ZxRa11XRygJabVjrOPiKRpWvx6EFQtWsQgwQtEVl3YBHux6OJhsrzUyTV2gImtJBeTRltQWgOTzahH4aKbkfmtbEd4OkUms8oWg9Tmpk/41F4zGRaFL0QzM9j5daJJrFdgSRUcSjaB/W9B44LIJDqYwcktTU18F5CK8rE6rGEzpD7mjMu0vRQGShNhGCJkQ/qurPwQ7513FjGtbEsOLQWhpDZZ/m0Xx1coAK71Dq+gn89lhqNBr/ruiy/rYTofHGqqppS/2iWTqpqWjKSA8Kt1V2RvNpHq2oQzOMA+EKhccvqPsNthS0oloz737o3DEBrZoYjc1aDK4bkJ2/LOjxcY00KR1awSdoWqFmk9pjJjVuLzIecsseRXscjUY0qu0EGaVG0U7ZmoREd1VEG6a71WWp4aFNN2qJaE092s+VoGTjKV01sDVZfx5F241GKxQmUCfQ513Ho/1CRXtA/e9otDdrWDQhaMhY6ZyxHNCM/tCgRnXfzYrWvM/WWjT7DdxzCpp+dECLL7o5Jvq2zdp5eqnN892AWgMaxfoP0IhC5i0ILei+I3qwQmGUdcEJjfF/xzD+TemhI3+gB2YZXDYzieVKaCEeOCrt6vCCvhPwaDproUdrULQlQ5cDvpQcrTYzozOfmdHWvuWlppp3ulWkDtdoixFoAVzYD/pE62rRaDzGIWg6TzG2xKCdNIyfKV4uc3IXFTTQ1noiWogH3i/aum7ZYI2i9fi2Rg4P2wM03eqZHs1kaNxJYmQUsUSF+jN7g3ZSh8ZWDToljXmvtESpzYSbyX7QdAFwftZS0RgqDg3s74WxNK0b2x/aEcP4ZQRaWbffgEMDm8ml3J1UaNgShaFdVNBepkfT+7GJ0XSLLVqpMTRXt52wJKEt7A3ajk5qfyWGyPTKyjGErmcztBsETe+B54/2LpnrbRj8GaZ0RkV3kHBooZYyXzQ6NbhqGJrAglEmZ33DeAyat/SHpusG0WinDa0NldBAbFQ7PU+OlnSxRUooUtEqQhQLeeD5o10wjH9R0J7GoLFMD4oWNjVJhqYNcenQivf1aGzfMUOr5YKWWGrFp9yChrpuUC5ZFO0OMJ0QLYPD1g7mwPtSSo16kvOGdjshCxW9D+ctxfB5S1Q5St1Y7erZQQ3aBPO/g6E/Eu3jV432NrFTSxpDpaIV1ASZPUOj7ho85VeDRgNs3/WD9k56tKITjca2ajs3IVpGD7wdiTZ6wDi0JqNVQ6RGz/k1RDQ/IxqQGh7XNCGTAO11WWbc1KDl6q8vovGYe/2gtRmaxpYAqclkNMiMJlS6c4oo2kfwbC0l4ym51PaFox1UFcqhdUIMFUU7hdCqITHu6HI0Gm2/sV9ec+RyncLQpgQ04IFnQYuRmqtBY7lOpcRoGeYt4PT3tFIjaHCtRWveJbTwGHgc2q8i0KwotA1X6Aa259keGDzsrogGk7H2QGr/Kgcl2Q6NjQoaPDxPuL6obPVUqYUE4PtAM4x/UtHoNggYiFENlUVP/qmDsVJK7E+DFqVQQyM1utfgqhWC1mNofl9oWGo6910rNZZQ5OrRKjq0NOcdy1LT9aG2Tmo/JEZD563Jew7SS02HdlQjteYP3KqB9pwiLVpqXzJGalo0mjW/6gkHGbBxrSOgKXsO9k5q3F6DEPPOMtjugtMcsqOllFqDSu2cEWKoWNDj5sPJWg2G51O7uSAiisOOmjgTAFd2tjTo1GA+DM1jtzs59ZvXR8mG5NRoKIBWTYrGUtOnwtAM8VY4s7o2sZC+G1C0xFLjt0GoaOgchnkODToC9V9fT0nGKTSx1Jj/3WVo3PVFwB1Xz2hxUh8SGi+1n4Wj9Qz+GhT+nCJ2wxNjy4IWLTUF7W9s1mLpzykKCnc3HEG7kVlqVY0fqkPjt0FU9IYKFG9V0umrQHsjCVrZNnrixb2Z0CIUelJdbKGzFjMGzUDX9+YhtZA1RwWNboMY6OhcSfEYwha78awPqSVG47ZBCN1Ad7moYdF74lKj0ZWexGj/y7YhC3coaY4hLJcMtpE1Z7Qdw/hPGY1ODaZtccjlDBU7UI9J7WHK0EIM2gUN2q6wahB31h+T2vt9oGnST3VSS4dmbOQgtZDFlnC0bR2acn3RdA5SC0OTA0X3wtCYA25wByBTtO/yRQva2vcy2pvCqoGybiAdr1qh3eBsdjTdwp4Oje7QmEMU4dYAoBmnX53URm4TEzpvhwQWeDT7UQ5oOqkNGsa/y2h0r8G5dGg306JdIB/XSm3QOCTm3jcaX7Md0t7eou1QNL3UBLRG48lt6kqYi1YYWplDm8sDTb0MW0JrPNnlDlIyO9BKKtcXiTeNsvzhe5nRisWVS750g7iA1lj7kj/hyVw2RIiQcY2ipT2ln7W1QG5VmW7ogHEIT94b1XvStfBoPhV7v0EuaIBuuLgyWaCaHdpvHPo7AvtSPBQTZAsnO8p3Pic0SNcEsuPRAlVKYND7fuVoiG4BHt05NP76gb83ircG5JmbafbchAcgU7T76cj0aLDdPftws1CrNceKLwfUY0S3y1bS+w0YWlovd0ePBrJznNn3Nidu6cAW4WGmIdcXCZeLVvpAC5EaTBwC557KJ8KZ5tVFw+BnJnTRUW8NKNqbKQPNYE+eukxc5HKaJLDpRc9Kc30RQ5tNGWgOR/urimaaG4tB+y6nOamfHc75m5A9BzmgmeZyF51snQbN7e6B1BwZbMnKcL+Bqxwz2T/aU0cAM6fAqPCTQwvA5tGnItGEcY1eX7S4h2gB2DnPIF9CGLAku76olTsaywQbmC/3c1K/sEE/HzQxf+6niTb1Y6Fpk4aCMiGuRGW/vigz2uhB43UlaQiUpowW3w2UO03Bgy2mNqdDU/OZYPmKKVS+xlS+1BQfNULGNTGwsAdodJFsCugm+/VFnT7Q9sei9XURT7kPNH1bY2jdvNBSxv5CFVp1ckdLGfsLV6iZEU2Kr5XYkabppaZHY1mHvaTdoKJeLho8GHSxO73U9AqVlhaF64vUi1UrFVe3bgBvU6FoKa8mDG9rYtZhH9cXZUbTJKiBImcd9nFHUO5oz/7/oSnrBgzt17mjlfNqa3uFRr9kJLm+iLuWjUXn80eDq56ZzfseopnwoO/shmoP0Giu5sA/0DKgoTTSVPdRhXSDlDeujh4IQWNppJWk3UBYNyCXi3KbD3ZTkRVGD6l5mhKa5bIvufxnhcULN2zdgKXR5462hZWXNbDAIqa5o83p2lUaG0rPqbifLmL6KtFm020pDEX7Mje0+bzRfkiPpomvAbSlPUeL7wZ679zeO7RVG7n+3F2qlnCxKj3kjAy5ojVwp/JGYye3e7I1SBWcL7l5S23k7XC0dFNkKyuaLmsfSo2d3J4XGjzZN0XRJXkjNFyfOeXmhpYuzhyGxmVTp0VDv2OTF+hGl7zQGiybGk4LMBq5dAeh0VEVEoWsG7Djc08kvUY6KVoLSyizeWcn+6YL5sYrtKdTXhpDRdGcvNFa/aK1ckZTFfpTQeMTvROjhXi54qHDe4GWeN1AKtzCwcO80ez4W02F64ukGVWplE1q4NIH9Xw1KT2+3Ne6AR8CT4umucxGzdzPbqg4tDtp5sjazSs8GkmP/xHQQqXm5IZWyVtqmdHk+Fo5K1qs1DZQY0++boB/E3vnQIwU7XzeaEhCeB6AMPDMBEHQy1GgRNV1A48ut+Ss0Gmt8hRrEOF5sCzw+p2Ik/3SS+10MrQIG0oPHQbXbd9pJ4ULldrjHNG4nWiOcyqp5EKldjMrmtrWmH1HcPX32moGsF5qys63Ir+BZTt5WwvpoQaNS1K4Dybj4ULR7sto6GIz3ENL8EHuoYRbGtfKVkveI2ee+PXdOLgEaHbicQ39Q7EGwexqSd6TGUju7GY0XDzaqt2voQK/0lVvMHacaLgQtAZ3WUYeaJbRWdXB3dwshMLp0RrPlmlSQC5o4G0AJ+fROvV71/yQsUS7y7LIpVWbXTc1mtwNyHyhc04jufq966NaOA1a89ksn7rfKiXuBnEeumdU5pc1ap19v6aBU9Aa1V0+dz8YOxLODIK5QciMikkS/HNpWgd3XrVfCtoTIUUeXP9NlJc5sMDaH3q5u6GB+0iBA2i/pGiNtadiQ2XXsvRjQ0W0oK6uTq2nPhTtl7ABtPFyWSAzzVU3pMn3hVZ27e5VDdyJ7y5zcBxao3pf/G3TXDLCemN/aOCXelsqnHniAzYKU7RGQ9pWYJpzJYCQAk0TX1O7AWmcltGaU++4Dyw/kRxBa6zJIhvo2hWu8iTdAGOUOEfAKOHrThEuvGmU/LGWDeDUgQ7bL4TWaN5SRFb2BC+DVF5B15hincEnQhRjDQwS02R6qBhaOGd30/cx2pNvJTATbMPQVQ7rTrduEIGGjOuARnL3rxV8gPYXU+6YZa8cgZbNhurQ4NudKa39unZScN0h2dUerOOVoQUtQwcHkm4FNNOc94zwyvcGLXhbhQObdvkJj7nRiaxcaGvy3ha0wuaRyTSfd2eoi298sp4RPE5J9sucd+1V+l9MIESxckOsvMJXTmYmmCjduKb6MpZoXM3ljQ2yMd00t3t2KaTy/My7tomgl+wu75aYVMfALqG9qAQtol1prUHfaEHN4BAQqUMEIuswT/7HQrOCb/e2pTaHDvb50dHAP+0eZ1yRyPpGS+TlGqHdgL5UgW4JKstLwktZu0Hs3ED6//BiByZia3p6e37RIxOAuJeEyuVfjphRufwfW0nyx5KoRV/iz8caaAM86CuaRvtKDZW29f4D7aeApsbXMvd5hMb/XtZuoIye9I/FCQTEpYdFl2ggSoh/SRyaRfHzL+mzmf8PJz52EFddYrUAAAAASUVORK5CYII=;imageBackground=none;" parent="1" vertex="1">
                    <mxGeometry x="130" y="130" width="65.93" height="140" as="geometry"/>
                </mxCell>
                <mxCell id="7" value="" style="shape=flexArrow;endArrow=classic;html=1;" parent="1" edge="1">
                    <mxGeometry width="50" height="50" relative="1" as="geometry">
                        <mxPoint x="230" y="190" as="sourcePoint"/>
                        <mxPoint x="450" y="190" as="targetPoint"/>
                    </mxGeometry>
                </mxCell>
                <mxCell id="8" value="&lt;font style=&quot;font-size: 36px&quot;&gt;Google 360 API&lt;/font&gt;" style="text;html=1;resizable=0;autosize=1;align=center;verticalAlign=middle;points=[];fillColor=none;strokeColor=none;rounded=0;" parent="1" vertex="1">
                    <mxGeometry x="50" y="300" width="270" height="30" as="geometry"/>
                </mxCell>
                <mxCell id="9" value="&lt;span jsslot=&quot;&quot;&gt;&lt;a class=&quot;wXeWr islib nfEiy&quot; jsname=&quot;sTFXNd&quot; jsaction=&quot;J9iaEb;mousedown:npT2md; touchstart:npT2md;&quot; data-nav=&quot;1&quot; tabindex=&quot;0&quot; style=&quot;height: 180px;&quot; href=&quot;https://www.google.com/imgres?imgurl=https%3A%2F%2Fmpng.subpng.com%2F20180809%2Fhvf%2Fkisspng-flask-by-example-web-framework-python-bottle-sebastian-estenssoro-5b6c0aa33b3b57.9170119715338072672426.jpg&amp;amp;imgrefurl=https%3A%2F%2Fwww.subpng.com%2Fpng-3y36jb%2F&amp;amp;tbnid=oqyAQdhpZ6GcJM&amp;amp;vet=12ahUKEwjb9Ky_25L5AhViwykDHRNZCIgQMygFegUIARDIAQ..i&amp;amp;docid=ebzJgEAuIXPQYM&amp;amp;w=900&amp;amp;h=880&amp;amp;q=python%20flask%20logo&amp;amp;hl=en&amp;amp;client=firefox-b-1-d&amp;amp;ved=2ahUKEwjb9Ky_25L5AhViwykDHRNZCIgQMygFegUIARDIAQ&quot; data-navigation=&quot;server&quot;&gt;&lt;div class=&quot;bRMDJf islir&quot; tabindex=&quot;0&quot; role=&quot;button&quot; jsname=&quot;DeysSe&quot; style=&quot;margin-left: 9px; margin-right: 9px; height: 222px; margin-top: -31px;&quot; jsaction=&quot;mousedown:npT2md; touchstart:npT2md;&quot;&gt;&lt;img src=&quot;data:image/png;base64,iVBORw0KGgoAAAANSUhEUgAAAOMAAADeCAMAAAD4tEcNAAAAkFBMVEX///8AAADu7u7t7e35+fn09PT39/f8/Pzx8fH4+PgGBwnp6emAgIDX19fq6uri4uK9vb13d3fR0dFXV1dRUVHHx8enp6eHh4fd3d1BQUFHR0fExMS6urrPz8+bm5uxsbFoaGgWFxicnJwNDhAoKCiTk5Nzc3NgYGAsLS40NDQ8PT5ra2sdHh5TVFSsrKwWFhYaarj2AAATP0lEQVR4nO1dCXuqPBMl7JRNsALuFsW99v//u28mYdMCgoJ436/zPPd2FDA5JJk5mWwch8KDCFRTUVOuNQk1MdU01GTUZNQ0fFhCTRRAU1FTrjWe/rSQJsJfa0pBwpXJCVlyUmVyTOP+MP5hLEr0bTEKKCxR1FhS1xpLFDWWKGosUdTiREHipBKN/jR/k8hNctwTyUnXySlFydV/p0LyTqkms5Tz71QoeqfqzTstKszCuiNcJVyaXFHd4W4Ls1G9SRPl00T56nrzMMaayb0DxvJqmmn/JMa4bVggggIi6iiKCJJqCtVEvCzAbZaC6alCJxhLLcGN4ZGuLUGc6G9zQ1FYoqZpsgUpqBSFDB81hcJFoRp+JeM3iqrygoW3iBY8qos1kysyN+V2jhYhn9YbXrnW8J3yaWHyqTHn8/4RcishOpVh4B4R9hJ4QKpLqFckh0BTTeHTwky1HKYM46P+UbYgT4Ko0QJ6CFoBWPwxTRPgnVnydXLafVt+a92ewoilJ6oWL2ltgbuFKqlYMZScA3klz4F6rvNYLTtBd4VUETVet4SX8xxoe5bUPb5EFAnqLcXzCM9RQcC0QHmoPGqg5jQJNYAXaxpqUE0Fi++oelbAFHldoIZHgcKEzEioiammoKYmmko1jmmP+EfLVl8MkAlUnttq2hUHACf+QmBXYumvwchbLwR1KyyvD/Oc0n7ONc8R88bq9aLSPDTjOZRXYctUbzQJNfGXJti9VVQmtqCqlAWJmK0b7RYJhceeq66weXMj6HYvyDLRbaGI5wjt8RzL7reqQr5sq1ueI1hBP24jEzl4DGN9nqObfWOUTP0RnlPT3KiqpsjMQfUosi0rWoG5EYuQqM15jgZd4N4xQie6Sw7wh/E18gDGhjxHtN4D4zM8p8LcUE3o3XdIgaDKNOhVZnhuTRB7rj7PeSvfUcxzhCd5zrth7ITn/LsYa/Mc660w1uU5EgqNjRZoItW0VJNFye7drtqSqKU51G7yWqTdmhuqVYzNvY9/7Gps7p0w/vGc/zueU91c8+YGRJb4Cp6jmq/ADzwnycxvw1Nogthzd3iOUMs/+rv5KuwYIHeX5wgpzwGtbZ4jE6CGRGsf1I30ynP2Z0KI2DqmW3mc56R1NR2Rz43NZ3W1iueMAOKudUi/pAEnv+I5ODYvFmm0XcuZJlfxnOA1GG1VTrOlyWletVLtHs/JmZv7/vFIyKez3Z30LjH+5jnCCzmATz7I13RISNQVPpQ+eY70TT5ACACddYfwJTynDKNMGESor4SEHQ6KPMBzZBBNTqRCo38ktWwIWd4QWooh524R5tEJusEoBbxUL8eJxp7jrwuzYopVue8IoZKSvb/huPmBUOlm9OeBPjJD1gIHiMBzbKPQH3MuIecfKFNn2j7CXnkOj8aGiTOQODRAANV8H4xZnO4OzynBqCx9BvHLGOgcAJsarHUSo/UK+0DsUW4kxTaHx9L7gKq63Y43u5DonDemJXpYDT9XofD7iWcwBqrULNPFPOe6MDOeU+I7oCmuJ+QQmxoozflmt5ii/0BPuSSTNh1mFc8RuuMAweTbX3+QuHqS3SVxjz62R496zNYxvpjnRF8pPnIaBJFPhuwC3qvTeuw7bcUIuuE5+YnBBRitc0xxzrsQy20ucbnpLYP1xdsBzMGqVYxCk/UWTQgDtHX1V99K/CHM5NDehk9ynQ5hCQTdxXwtd+txSxaW9q2SPGnVOWafuBxclOY8B7zGccaLhPwI0E2e4UQzWRLM2WIFyL8N0vaUpT54DtgTyQm5IVlPOWFGbCWM7evJc8H2HOXuML6K5whkwh2PoJgRegjZp/jWBzJg1422ZxC2wHOuQwD3eY5ETlCU0AiXxj6wI9oyD2QBRcpu9Numc3d5zu+5ZNWhEC2NmcTRk98x5DFRAdhFgI7jV8wBsmZwEv1R2xixbyWm2Uo1SUxzfaPl/WManGvEc0bEWFPXyGIAH+TTTa/JZLlqu/NRj+cI7XIA2jlGOe8J8bh8hHU+CffLjjC+lOeEcRyHrA3TPeFD6aUB8Q5tDw88hjF1jbxwp64WYrQZj1O/yXa2IgFYn/SSOuSmfkcYG8QeawxZaekokawVxZD3MVmlrdIBL0Lm7AK+psBpG6MtJebm/pAViyEzuE/Fc3xWWem/M7h9ZWWwCwE8ZA9bxgi+w3p9PGeE8NZHKEf0+7Yfern+onlsH2MP8RyJFmF4Imhwlvr5PF9mxHx6fjuMRcb1bjznGDdITGR2DAfHnL9YknYhlvGcqrWBdcfKmeEpnhPIGiR0hC0hMia+wOXv+WqZlNM5gUXmRknzeqO10EeG+kg+Yh+5McYkCXTwrKv81fIo1gN95DZiHTx0pGh1nXO7JfpDOgyw5IYKMoR5FxhfHs/hzr6HZjXklF2EFTUyKMrzjuOnofduGKnWjOeAGKvZEinATCDeJzIdn/Y99oRTbMfoBmODuWQ36wQqpiCDyKJcOFY+IiOb9jvc43IscVPua3+Gd+RA21xFk5Yx4pzAdLpx9WTkeO0Dg/vkuJVIdsEEQdqau+IMMnIImWI7HXEe17Lz6IfngKyIfaYFGZxpTzkYh/gomBuN27c74NrbuNWIREtqWTdACI5H6EZmMVbj8t/AyK2JxVykzZ2Id+X2Z+1OaHkAY9ECpQfWPkQk3NGC9IM9WVz1p6R2G6RkWnfMze2iq8Y8p2RuJ0+cBcW4jQiJvq4CHONWw1YPzHlohQOA7LzxF2KEirmcbq8K0ju1j/H1PAck+BmwBol9yOVnzuZMg1Yra1s8h2/Ic1Am0zUDiZE4P1xMicvmW3mD9aBfjKUrI5uu8XQ3UdzFIucZNyETsg5pvEoO/DZjAQ+s8WRwK3lOzbW6E+8cR1oJ+frEENaUUNuzIKRFq3PNc27MTcfzcziTjFKMkQF4yX69pqmFZN8qxh7XW+22s7hFXnT0mB/pfFafLP4jGC0yN1Lbin2tTcJU7YC0NnvuMZ7DtpnBTXSy7XQ4tomOiJqU06yqNWURYbMfccoDGiByiG9WOOvQIkaezjiIt85RcGcdunUO7gKUaGw7HZ6ry3Pqr2H5WM0YM3cUOgwCDTMZthq0xVp75DlU5mQwilkrJx7ZYGQy3vG5yE/3eBZjLzyHyZZwjJoDNJFsfKAFid9QSTsjkV1ivMdzmBBnHochz4MT+XY9QuJ4jrYkrXSWH8TIpxhvtwikWn6LwHsYTRKQhO4c4d+3N4vjqxPOIW3MtZJ17XazQIbxWvtlXGt3sO6v1Y2OF2Zbz8kEwQVDNltxqw33fJvslefEMvFsB1rhhFNch6wjsg3PBn0mhGvjZxH2zQGYKNDskKyucOpDeLCiVRhtIlZ8JzJuoxx7xwhNUhnRQeXN8Bv+P7FZSXSyhwCm6Nnhj57G5m7kQjidRlvpfJa9t6Oj6HTc1YVm+uSE3SZjc/XNTeO1uhGxTJLMaKETBZzTF7pHhbM3a3J6agFh3zwnAzm1STyrdTed4LSdY9KJhN4keWbOTu88J5ELAJrFIInz8wG81TOQ1SFb9vZkXzCLruaubm+DEZjrEthbssqM1tjxKqXl+oXsbjpb0hBLuxuMWXusNbCj1F07z5ONN0zaZNwwcx1lsLyTfCTLwlZbaxpoo/ZoZUSgRZ6TyYqa1TxGZK6Jf3TRoRjJGDNd5VOvlb4Dz8kEFz1sSGJgvw5rstvh7DmX08FJKovxGvjezoNKq2L/pObK0LfgAJmAl1yFXoKSecw5ZyzXOBMbi9BklPaTctuZPVpSU+RUGp83wwhEnJyM5SItSxrQQjwe0L3zBX7dDIdY2o6//YxnoRsIGMcwN8XN8/32CFL8HydahhtK7tLi9FwOe5gfe9/ltAiK0B2ZgiQs48m+xPBCf1OytueBceTavqNeH/m3qAbZDjj3RHbfJK225EBmXz72MeMJzLFk3AiXvRT+3nvun6N55yPk9xLNBksjCTMzjudtrtxL7E7ZWt+S0Mj7cIAbsaP9bma5zsqYkKzQciWXld8BW2pF5+RtMYLo3u4wcaLQW4S+byyWuzP5OnxOfkiudq4NNKxuZR+ze57z3B5B0tzzh+PDJ5ihgWuCzAc+g7cfRlHo3v+Fh/odDFQK/M7ZFu3sLyfy5mjgRf5pZfhReJm6VoPoQOY7+NR38PyvwNXjZ1u82x56XZxt8W4Y34HndCDvx3Palwd4TjIYV+9sC0V7g/3lZKXLsy3+0T30/jD+NzB2EV/tVJ7f8/nO7s98/+cFSKbFd3u2xVv4jm7Ptng3jH8851/mOX9nW/ydbfGH8d/F+H/Ic/7Otng7//h3tsUfz+H+UzwnXYBe92yL7nfnrhal+7Mt+IXRr0R852Nz6ifpV8Zq5zxHHfaMcdIcY1Oe8yYYG/Gcpmdb6N89YxzrfNdnW9i9t0e787Mt3gtjNzznn8XY4GyL98LYzdkWVt82Z2J1frbFm/gOvsuzLd4G47/Kcz7u3/KGPGcSBPVv9uiE+loYG/Gcmts9p2dbNOI5xylu11FTIiney/wORr3zsy2KfcdRsefTAZOpa9q2irml0+LtegjZlok1MOZ8R90+crlJbcQBfs0Fx12DvQYYz8vmGF/Nc+iKOLz28zPGg5HoYSw/cjw5vo5susWYxenunm1RynOwHNIPEq4KIPSYgNoYcSO6phi7OduilOf4eYwGN4n/NsA4q2lzOj/botR3XGEkF7bDvtME46Aexgqe09LZFjUxxuLgqqRuMPbBc8owmv1jrMFzrvazaoyxpu9oiFHo8myLOjaHM3IY63O5mhitzs+2KPUdGcZv7lSCcRjOBrieJZHdZe7Ol/7mCuPq87A/5xd9XEt/PCfDeD4MuHEhxigenk1re7LQ08xj3KS5uovx5fGc/F7raRnkMH5CdsKfrZx9Y3L8kHw4KifmMZKPFWZ2uti2izHHc65DAA14js/qB001/TLD+BGX13d6ecLF7VbgjnmMZIu775bKXZ7zey5Z07MtSvtWaXsclmGU6ZK5FKOTmJgx/53HuODUYzlE1rfq9myLGr5jVoSR7Hfsb3obVsmr8mIYB3e8TT2e89TZFjUwrgoxJpJVZUxBDH/yGEPsc45JlbwJz0kPZfuF8eC42W0r1lrostYYI92JuJrhPoax0dkWjXlOhnE4A6OKiwxSxLHzWKUY6da7GYWowtjh2RZCrb5VAcZPGzfuwrqqZNeHbGH5IcEoH+l25odfP5TDKHR+tkUNnlOIESom28XrCiNkOT12L7Y5Pxw7o65MwHd0vedzY4xxflUW4slh9DIKN89hxGeqOmR98pywBKNKlS8uwxjfllC4CZ67E2O8xH9xs4/OMBYZ13o8BwONk9svcV8DVlzwvPATh9/mM5OCHdErCy7m8HZiUvWqkizhOW2ebaEXY2RHdiiDaJf/1tHgS9lD5kmvWyrH2k1AMQLKi+fGxThmZnUBP3DGF6pMZ4WmZ6x3fraFVOg7DrQK0Jea+zbdgwSB0+2PzBPZQJoOXjVizyGwzaDow7gUjMSBzFwHJS8P9JFb4gDJTmtXvb6f8U/+0zB2O1kHcvM5/E4+nfOlthnuC5Mh//64VR15HmNcV/+pMda2z7aQ+L4xjoXOz7awnZ4x7jqP51h2jdBZp7LonOdYtrm5n48OZe3aVscYBd0sp1mvEM+0haYY628xzzTBDi49QowCW7hnbp492wJenz2/9FVdf7y5rSkV5uZ5nkM3JlGEwB1V9tQ7k+10btJ8dclzqKbqgTsf+VV99S5k40/nbmCr3NMYbw3PbeyRYxMDAzMwZ0ZVGLRdOThLNzDNLATQCGPpyshSwyOrvKBTnPPZYjtZ38/hczI+RbO5GQA+XeDvLLVq5WwLEI1qtCzhnzlaRs6wm4q7/95Gl6lpBgGmxVYlapXdqjZ4Dut8gMiCAK9V5S07mM9Ho9F84PmnSWmHqCm4yckPZyP83TmAE6BrbgkCHUjEbbu75QAZRgzLQh3RZHCY2FLgP3c0Hcy8MHJOn4dNnel91/KxOUxWjh96y9l06kLh2ViCtiBroiLh7PAeMMaJypalgymARgp5cudoGkx3Cmhns0u4iAxnu1qdVqvh9yfKNwrThif8fusY0SL04O4BIgNY8BsukBleBeMGv8wSEZLkNKE5RqXZ2RagyajJTEterKqI0OHRddu2oQ7riNZ1sXxNrMgj+AilTDX4nmkuAmLfYXm5+NkGTAL8hq6rmigqaNX5+JVeJdzt2RaJFr/d2/YPVldHwUC2GqAIFpQzbrNm0gu3GlwV6H08Rr7Zs/jWVetuch3yHOop+bQG8b8cFk0KjTkA0C0aN6N5p5MQbIoCNYYHi8vCG9FB5S04n3fMVcl1wnOqE823jeR1Kux1Yvlg8VhY3uwVx4lkWtPk2j/bItNqYSxJ9M5SxF9x66rkujjbgmMmNX6xfJrUtcYSTbVcItcY7ySXafJ1wp2ebZHyHDm1BNXEo3Dvxe6Sa5fn8HzOKZfXm8IBiEY2oCC5l3OA/xeM5fHcd8RYlOiNjYsbSDG5uh2bL8Qo1MV4P7laGFvkOXXiuaWGp53kXsNz2vKPV4X5xjznD+MfxhYx/g9OsPevAL7TcQAAAABJRU5ErkJggg==&quot; data-deferred=&quot;1&quot; class=&quot;rg_i Q4LuWd&quot; jsname=&quot;Q4LuWd&quot; alt=&quot;Python Logo&quot; data-atf=&quot;true&quot; data-iml=&quot;1165&quot; width=&quot;227&quot; height=&quot;222&quot;&gt;&lt;/div&gt;&lt;div class=&quot;c7cjWc mvjhOe&quot;&gt;&lt;/div&gt;&lt;/a&gt;&lt;/span&gt;" style="text;whiteSpace=wrap;html=1;fontSize=36;" parent="1" vertex="1">
                    <mxGeometry x="480" y="130" width="240" height="30" as="geometry"/>
                </mxCell>
                <mxCell id="13" value="" style="shape=flexArrow;endArrow=classic;html=1;labelPosition=center;verticalLabelPosition=middle;align=center;verticalAlign=middle;" parent="1" edge="1">
                    <mxGeometry width="50" height="50" relative="1" as="geometry">
                        <mxPoint x="450" y="250" as="sourcePoint"/>
                        <mxPoint x="230" y="250" as="targetPoint"/>
                    </mxGeometry>
                </mxCell>
                <mxCell id="17" value="" style="group;rotation=-90;" parent="1" vertex="1" connectable="0">
                    <mxGeometry x="480" y="440" width="220" height="60" as="geometry"/>
                </mxCell>
                <mxCell id="15" value="" style="shape=flexArrow;endArrow=classic;html=1;" parent="17" edge="1">
                    <mxGeometry width="50" height="50" relative="1" as="geometry">
                        <mxPoint x="80" y="140" as="sourcePoint"/>
                        <mxPoint x="80" y="-80" as="targetPoint"/>
                    </mxGeometry>
                </mxCell>
                <mxCell id="16" value="" style="shape=flexArrow;endArrow=classic;html=1;labelPosition=center;verticalLabelPosition=middle;align=center;verticalAlign=middle;" parent="17" edge="1">
                    <mxGeometry width="50" height="50" relative="1" as="geometry">
                        <mxPoint x="140" y="-80" as="sourcePoint"/>
                        <mxPoint x="140" y="140" as="targetPoint"/>
                    </mxGeometry>
                </mxCell>
                <mxCell id="21" value="" style="aspect=fixed;perimeter=ellipsePerimeter;html=1;align=center;shadow=0;dashed=0;spacingTop=3;image;image=img/lib/active_directory/sql_server.svg;" vertex="1" parent="1">
                    <mxGeometry x="549.95" y="620" width="115.5" height="150" as="geometry"/>
                </mxCell>
                <mxCell id="23" value="&lt;font style=&quot;font-size: 38px&quot;&gt;SQLite&lt;/font&gt;" style="text;html=1;resizable=0;autosize=1;align=center;verticalAlign=middle;points=[];fillColor=none;strokeColor=none;rounded=0;" vertex="1" parent="1">
                    <mxGeometry x="542.7" y="800" width="130" height="30" as="geometry"/>
                </mxCell>
            </root>
        </mxGraphModel>
    </diagram>
</mxfile>